<svg width="759" height="692" viewBox="0 0 759 692" fill="none" xmlns="http://www.w3.org/2000/svg">
<rect y="253" width="759" height="125" rx="61.5" fill="#E1E1E1"/>
<rect y="441" width="759" height="62" rx="31" fill="#E1E1E1"/>
<path d="M32 599C32 580.775 46.7746 566 65 566H693C711.225 566 726 580.775 726 599V629C726 663.794 697.794 692 663 692H95C60.2061 692 32 663.794 32 629V599Z" fill="#E1E1E1"/>
<path fill-rule="evenodd" clip-rule="evenodd" d="M725.999 160.195C726 160.297 726 160.398 726 160.5H725.996C725.729 176.838 712.402 190 696 190H62C45.5984 190 32.271 176.838 32.0041 160.5H32C32 160.398 32.0002 160.297 32.0006 160.195C32.0002 160.13 32 160.065 32 160H32.0017C32.2868 117.613 68.8137 76.9911 133.634 47.0093C198.709 16.9098 286.97 -3.21374e-06 379 0C471.03 3.21374e-06 559.291 16.9098 624.366 47.0094C689.186 76.9911 725.713 117.613 725.998 160H726C726 160.065 726 160.13 725.999 160.195Z" fill="#E1E1E1"/>
</svg>
