<svg width="390" height="390" viewBox="0 0 390 390" fill="none" xmlns="http://www.w3.org/2000/svg">
<path fill-rule="evenodd" clip-rule="evenodd" d="M3 0C1.34315 0 0 1.34316 0 3.00001V387C0 388.657 1.34316 390 3.00001 390H387C388.657 390 390 388.657 390 387V3C390 1.34315 388.657 0 387 0H3ZM59 66C54.0294 66 50 70.0294 50 75V117C50 118.657 51.3431 120 53 120H337C338.657 120 340 118.657 340 117V75C340 70.0294 335.971 66 331 66H59ZM60 183C60 181.343 61.3431 180 63 180H327C328.657 180 330 181.343 330 183V207C330 208.657 328.657 210 327 210H63C61.3432 210 60 208.657 60 207V183ZM53 270C51.3431 270 50 271.343 50 273V311C50 315.971 54.0294 320 59 320H331C335.971 320 340 315.971 340 311V273C340 271.343 338.657 270 337 270H53Z" fill="#E1E1E1"/>
</svg>
