<svg width="694" height="644" viewBox="0 0 694 644" fill="none" xmlns="http://www.w3.org/2000/svg">
<path fill-rule="evenodd" clip-rule="evenodd" d="M214.014 47.5752C207.835 48.5119 201.482 49 195 49C153.937 49 118.081 29.414 98.8809 0.297119C73.2979 12.3997 52.2529 26.1816 36.252 41.0762C79.1104 52.1335 112.626 91.8784 120.984 142H250.495C227.913 118.122 214 85.4865 214 49.5C214 48.8573 214.005 48.2157 214.014 47.5752ZM434.505 142H602.548C610.278 100.954 634.952 67.2372 667.661 51.1631C650.922 32.4415 626.523 15.1857 595.382 0.421417C581.713 40.6627 539.257 70 489 70C482.412 70 475.957 69.4958 469.685 68.529C465.725 96.9238 453.032 122.41 434.505 142ZM623.787 518C640.792 542.966 665.625 560.454 694 565.502V581C694 615.794 665.794 644 631 644H613.542C602.822 599.995 558.298 567 505 567C503.954 567 502.912 567.013 501.873 567.038C498.538 549.47 492.631 532.955 484.609 518H623.787ZM525.381 393C546.421 407.893 572.336 418.244 600.884 422.207C600.301 427.543 600 432.981 600 438.5C600 444.091 600.308 449.598 600.906 455H422.719C403.601 444.747 382.155 439 359.5 439C336.845 439 315.399 444.747 296.281 455H120.261C121.531 448.507 122.376 441.827 122.761 435.002C154.854 428.243 182.963 413.286 203.607 393H525.381ZM516.252 205C488.279 228.225 471 260.2 471 295.5C471 307.451 472.98 319.021 476.687 330H238.216C239.391 323.641 240 317.129 240 310.5C240 266.813 213.532 228.217 173.086 205H516.252ZM0 554.258C3.94141 554.748 7.94531 555 12 555C42.3711 555 69.8926 540.879 89.9346 518H234.391C228.207 529.528 223.28 541.983 219.819 555.132C217.893 555.044 215.952 555 214 555C155.957 555 108.319 594.133 103.416 644H63C28.2061 644 0 615.794 0 581V554.258Z" fill="black"/>
</svg>
